{"title":"18+ The Evil In Us 2016 Movies BRRip XviD AAC New +Sample ☻rDX☻","uid":16013914,"size":740428181,"categoryP":"video","categoryS":"movies","magnet":"?xt=urn:btih:0fef5028cc90a76baf092792dfc1d5d76561c48b&amp;dn=18%2B+The+Evil+In+Us+2016+Movies+BRRip+XviD+AAC+New+%2BSample+%E2%98%BBrDX%E2%98%BB&amp;tr=udp%3A%2F%2Ftracker.leechers-paradise.org%3A6969&amp;tr=udp%3A%2F%2Fzer0day.ch%3A1337&amp;tr=udp%3A%2F%2Fopen.demonii.com%3A1337&amp;tr=udp%3A%2F%2Ftracker.coppersurfer.tk%3A6969&amp;tr=udp%3A%2F%2Fexodus.desync.com%3A6969","seeders":0,"leechers":28,"uploader":"basicssom","files":2,"time":1476267963,"description":"----------------------------------------------------------------\r\n18+ The Evil In Us 2016 English Movies BRRip XviD AAC New Source with Sample ☻rDX☻\r\n\r\nSCREEN SHOTS &amp; POSTER:\r\n  \nhttp://postimage.co.nr/2016/10/accessory/index.htm  \nhttp://postimage.co.nr/2016/10/accessory/1.html  \nhttp://postimage.co.nr/2016/10/accessory/2.html  \nhttp://postimage.co.nr/2016/10/accessory/3.html  \nhttp://postimage.co.nr/2016/10/accessory/4.html  \nhttp://postimage.co.nr/2016/10/accessory/5.html  \nhttp://postimage.co.nr/2016/10/accessory/6.html  \nhttp://postimage.co.nr/2016/10/accessory/7.html  \nhttp://postimage.co.nr/2016/10/accessory/8.html  \nhttp://postimage.co.nr/2016/10/accessory/9.html  \nhttp://postimage.co.nr/2016/10/accessory/10.html\r\n\r\nFormat                                   : AVI\r\nFormat/Info                              : Audio Video Interleave\r\nFile size                                : 699 MiB\r\nDuration                                 : 1 h 31 min\r\nOverall bit rate                         : 1 071 kb/s\r\nWriting library                          : VirtualDub build 35491/release\r\n\r\nVideo\r\nID                                       : 0\r\nFormat                                   : MPEG-4 Visual\r\nFormat profile                           : Advanced   \r\nFormat settings, BVOP                    : 2\r\nFormat settings, QPel                    : No\r\nFormat settings, GMC                     : No warppoints\r\nFormat settings, Matrix                  : Default (H.263)\r\nMuxing mode                              : Packed bitstream\r\nCodec ID                                 : XVID\r\nCodec ID/Hint                            : XviD\r\nDuration                                 : 1 h 31 min\r\nBit rate                                 : 933 kb/s\r\nWidth                                    : 640 pixels\r\nHeight                                   : 272 pixels\r\nDisplay aspect ratio                     : 2.35:1\r\nFrame rate                               : 23.976 (24000/1001) FPS\r\nColor space                              : YUV\r\nChroma subsampling                       : 4:2:0\r\nBit depth                                : 8 bits\r\nScan type                                : Progressive\r\nCompression mode                         : Lossy\r\nBits/(Pixel*Frame)                       : 0.224\r\nStream size                              : 609 MiB (87%)\r\nWriting library                          : XviD 64\r\n\r\nAudio\r\nID                                       : 1\r\nFormat                                   : MPEG Audio\r\nFormat version                           : Version 1\r\nFormat profile                           : Layer 3\r\nMode                                     : Joint stereo\r\nCodec ID                                 : 55\r\nCodec ID/Hint                            : MP3\r\nDuration                                 : 1 h 31 min\r\nBit rate mode                            : Constant\r\nBit rate                                 : 128 kb/s\r\nChannel(s)                               : 2 channels\r\nSampling rate                            : 48.0 kHz\r\nCompression mode                         : Lossy\r\nStream size                              : 83.5 MiB (12%)\r\nAlignment                                : Split accross interleaves\r\nInterleave, duration                     : 42  ms (1.00 video frame)\r\nInterleave, preload duration             : 500  ms\r\n\r\nIMDB \nhttp://www.imdb.com/title/tt4035898/","torrent":{"xt":"urn:btih:0fef5028cc90a76baf092792dfc1d5d76561c48b","amp;dn":"18%2B+The+Evil+In+Us+2016+Movies+BRRip+XviD+AAC+New+%2BSample+%E2%98%BBrDX%E2%98%BB","amp;tr":["udp%3A%2F%2Ftracker.leechers-paradise.org%3A6969","udp%3A%2F%2Fzer0day.ch%3A1337","udp%3A%2F%2Fopen.demonii.com%3A1337","udp%3A%2F%2Ftracker.coppersurfer.tk%3A6969","udp%3A%2F%2Fexodus.desync.com%3A6969"],"infoHash":"0fef5028cc90a76baf092792dfc1d5d76561c48b","infoHashBuffer":{"type":"Buffer","data":[15,239,80,40,204,144,167,107,175,9,39,146,223,193,213,215,101,97,196,139]},"announce":[],"urlList":[]}}